<?xml version="1.0" encoding="UTF-8"?>
<!DOCTYPE svg PUBLIC "-//W3C//DTD SVG 1.1//EN" "http://www.w3.org/Graphics/SVG/1.1/DTD/svg11.dtd">
<!-- Creator: CorelDRAW 2019 (64-Bit) -->
<svg xmlns="http://www.w3.org/2000/svg" xml:space="preserve" width="0.90278in" height="0.555551in" version="1.1" style="shape-rendering:geometricPrecision; text-rendering:geometricPrecision; image-rendering:optimizeQuality; fill-rule:evenodd; clip-rule:evenodd"
viewBox="0 0 869.54 535.1"
 xmlns:xlink="http://www.w3.org/1999/xlink"
 xmlns:xodm="http://www.corel.com/coreldraw/odm/2003">
 <defs>
  <style type="text/css">
   <![CDATA[
    .fil1 {fill:none}
    .fil0 {fill:white}
   ]]>
  </style>
 </defs>
 <g id="Layer_x0020_1">
  <metadata id="CorelCorpID_0Corel-Layer"/>
  <path class="fil0" d="M697.91 152.84l-258.63 -151.61c-2.72,-1.59 -6.06,-1.64 -8.82,-0.11l-258.63 142.69c-2.84,1.56 -4.61,4.55 -4.61,7.8l0 374.57c0,4.93 4,8.92 8.92,8.92l44.59 0c4.92,0 8.92,-3.99 8.92,-8.92l0 -240.79 410.24 0 0 240.79c0,4.93 3.99,8.92 8.92,8.92l44.59 0c4.93,0 8.92,-3.99 8.92,-8.92l0 -365.65c0,-3.17 -1.67,-6.09 -4.4,-7.69zm-218.55 -27.99l-89.18 0c-4.92,0 -8.92,3.99 -8.92,8.92l0 35.67c0,4.92 4,8.92 8.92,8.92l89.18 0c4.93,0 8.92,-4 8.92,-8.92l0 -35.68c0,-4.92 -3.99,-8.92 -8.92,-8.92zm-8.92 35.67l-71.34 0 0 -17.83 71.34 0 0 17.83zm-240.79 89.19l410.24 0 0 17.84 -410.24 0 0 -17.84zm410.24 -17.84l-410.24 0 0 -17.84 410.24 0 0 17.84zm-71.34 89.19l0 17.83 -17.84 0 0 -17.83 17.84 0zm-35.68 0l0 26.75c0,4.93 3.99,8.92 8.92,8.92l35.67 0c4.93,0 8.92,-3.99 8.92,-8.92l0 -26.75 17.84 0 0 89.18 -89.18 0 0 -89.18 17.83 0zm80.27 -17.84l-107.02 0c-4.93,0 -8.92,3.99 -8.92,8.92l0 98.1 -98.1 0c-4.92,0 -8.92,3.99 -8.92,8.92l0 107.02c0,4.93 4,8.92 8.92,8.92l107.02 0 107.02 0c4.93,0 8.92,-3.99 8.92,-8.92l0 -107.02 0 -107.02c0,-4.93 -3.99,-8.92 -8.92,-8.92zm-151.61 124.86l0 17.83 -17.84 0 0 -17.83 17.84 0zm-35.68 0l0 26.75c0,4.93 4,8.92 8.92,8.92l35.67 0c4.93,0 8.92,-3.99 8.92,-8.92l0 -26.75 17.84 0 0 89.18 -89.18 0 0 -89.18 17.83 0zm142.69 0l0 17.83 -17.84 0 0 -17.83 17.84 0zm-35.68 0l0 26.75c0,4.93 3.99,8.92 8.92,8.92l35.67 0c4.93,0 8.92,-3.99 8.92,-8.92l0 -26.75 17.84 0 0 89.18 -89.18 0 0 -89.18 17.83 0zm151.61 89.18l-26.76 0 0 -312.14c0,-4.92 -3.99,-8.92 -8.92,-8.92l-428.08 0c-4.92,0 -8.92,3.99 -8.92,8.92l0 312.14 -26.76 0 0 -360.39 249.58 -137.7 249.85 146.47 0 351.62z"/>
  <rect class="fil1" y="-0" width="869.54" height="535.1"/>
 </g>
</svg>
