<?xml version="1.0" encoding="UTF-8"?>
<!DOCTYPE svg PUBLIC "-//W3C//DTD SVG 1.1//EN" "http://www.w3.org/Graphics/SVG/1.1/DTD/svg11.dtd">
<!-- Creator: CorelDRAW 2019 (64-Bit) -->
<svg xmlns="http://www.w3.org/2000/svg" xml:space="preserve" width="0.90278in" height="0.555559in" version="1.1" style="shape-rendering:geometricPrecision; text-rendering:geometricPrecision; image-rendering:optimizeQuality; fill-rule:evenodd; clip-rule:evenodd"
viewBox="0 0 2398.59 1476.06"
 xmlns:xlink="http://www.w3.org/1999/xlink"
 xmlns:xodm="http://www.corel.com/coreldraw/odm/2003">
 <defs>
  <style type="text/css">
   <![CDATA[
    .fil0 {fill:none}
    .fil1 {fill:white}
   ]]>
  </style>
 </defs>
 <g id="Layer_x0020_1">
  <metadata id="CorelCorpID_0Corel-Layer"/>
  <rect class="fil0" x="-0" y="0.01" width="2398.59" height="1476.05"/>
  <path class="fil1" d="M1294.53 642.8l-47.61 0c0,26.27 -21.36,47.61 -47.61,47.61 -26.26,0 -47.61,-21.36 -47.61,-47.61l-47.61 0c0,52.52 42.71,95.23 95.23,95.23 52.52,0 95.23,-42.71 95.23,-95.23zm-401.38 337.89l63.26 168.75 0 0 34.88 17.44 0 0 17.54 8.78 0 79.3 108.45 173.49 5.99 0 -60.74 -341.97 -53.7 17.9 0 -159.87 -115.69 36.18zm98.15 336.07l0 0 -30.07 -48.13 0 -63.54 -1.53 -0.76 -41.3 -20.64 -70.78 -188.75 -19.16 5.99 0 -0.05 -45.58 14.26c-49.96,15.61 -83.54,61.24 -83.54,113.6l0 299.72 129.11 0 162.84 0 69.79 0 -69.79 -111.69zm-162.84 159.31l-176.73 0 0 -347.33c0,-73.29 47,-137.23 116.95,-159.06l59.78 -18.67 0 -0.03 180.39 -56.36 0 -46.79 47.61 15.88 0 -49.32c-52.61,-34.39 -92.02,-87.19 -109.25,-149.2 -58.97,-7.02 -105.02,-56.77 -105.02,-117.6l0 -190.46c0,-196.9 160.2,-357.11 357.11,-357.11 196.91,0 357.11,160.21 357.11,357.11l0 190.46c0,60.84 -46.05,110.59 -105.02,117.64 -17.26,61.99 -56.63,114.8 -109.25,149.19l0 49.33 47.61 -15.88 0 46.79 240.17 75.03c69.95,21.83 116.95,85.76 116.95,159.06l0 347.33 -755.57 0 -162.84 0zm513.69 -952.3c0,13.15 -10.66,23.81 -23.81,23.81 -13.15,0 -23.81,-10.66 -23.81,-23.81 0,-13.15 10.66,-23.81 23.81,-23.81 13.15,0 23.81,10.66 23.81,23.81zm-238.07 0c0,13.15 -10.66,23.81 -23.81,23.81 -13.15,0 -23.81,-10.66 -23.81,-23.81 0,-13.15 10.66,-23.81 23.81,-23.81 13.15,0 23.81,10.66 23.81,23.81zm401.39 456.88l-63.27 168.8 -52.43 26.21 0 79.3 -108.45 173.49 -5.92 0 61.5 -341.71 52.86 17.63 0 -159.87 115.72 36.16zm-163.32 -66.73l0 124.38 -81.06 -27.01c5.95,-10.43 9.63,-22.33 9.63,-35.19 0,-12.86 -3.68,-24.76 -9.63,-35.19l81.06 -27zm-119.04 62.19c0,13.14 -10.69,23.81 -23.81,23.81 -13.12,0 -23.81,-10.67 -23.81,-23.81 0,-13.14 10.69,-23.81 23.81,-23.81 13.12,0 23.81,10.67 23.81,23.81zm-47.61 72.71l0 379.63 -3.86 0 -63.45 -357.21 67.31 -22.43zm47.61 0l68.13 22.71 -64.23 356.92 -3.9 0 0 -379.63zm237.07 -433.89c0.5,-6.55 1,-13.08 1,-19.74l0 -114.65c27.65,9.86 47.61,36.05 47.61,67.04 0,31.35 -20.45,57.77 -48.62,67.35l0 0zm-260.88 -567.31c170.65,0 309.5,138.85 309.5,309.5l0 95.85c-13.9,-10.52 -29.93,-18.4 -47.61,-22l0 -73.85 -47.61 0 0 47.19c-79.61,-3.32 -157.29,-26.5 -225.82,-67.6l-36.07 -21.63 0 42.05c0,20.81 2.95,41.62 8.61,61.63 -60.33,-16.29 -118.01,-40.75 -171.85,-73.05l-51.02 -30.67 0 115.92c-17.69,3.62 -33.71,11.47 -47.61,22l0 -95.83c0,-170.65 138.85,-309.5 309.5,-309.5l0 0zm-309.5 499.96c0,-30.99 19.97,-57.19 47.61,-67.04l0 114.65c0,6.66 0.5,13.19 1,19.74 -28.17,-9.58 -48.62,-36 -48.62,-67.35l0 0zm95.23 47.61l0 -196.51c65.51,36.38 135.92,62.25 209.6,77l47.73 9.54 -24.28 -48.57c-5.86,-11.7 -10.41,-24.09 -13.55,-36.83 65.23,31.6 136.44,49.38 209.03,52.11l0 143.25c0,118.16 -96.14,214.27 -214.27,214.27 -118.13,0 -214.27,-96.11 -214.27,-214.27zm119.04 243.69c29.57,11.6 61.61,18.19 95.23,18.19 33.62,0 65.66,-6.59 95.23,-18.19l0 40.71 -78.94 26.33 0.3 0.9c-5.35,-1.28 -10.85,-2.13 -16.59,-2.13 -5.74,0 -11.24,0.86 -16.57,2.13l0.3 -0.9 -78.96 -26.33 0 -40.71zm-47.61 75.04l81.06 27.02c-5.95,10.41 -9.63,22.31 -9.63,35.17 0,12.86 3.68,24.76 9.63,35.19l-81.06 26.99 0 -124.36zm642.8 514.53l-361.75 0 99.86 -159.82 0 -63.54 42.8 -21.4 70.81 -188.8 64.74 20.24c49.96,15.61 83.54,61.24 83.54,113.6l0 299.72z"/>
 </g>
</svg>
