<?xml version="1.0" encoding="UTF-8"?>
<!DOCTYPE svg PUBLIC "-//W3C//DTD SVG 1.1//EN" "http://www.w3.org/Graphics/SVG/1.1/DTD/svg11.dtd">
<!-- Creator: CorelDRAW 2019 (64-Bit) -->
<svg xmlns="http://www.w3.org/2000/svg" xml:space="preserve" width="0.90278in" height="0.555559in" version="1.1" style="shape-rendering:geometricPrecision; text-rendering:geometricPrecision; image-rendering:optimizeQuality; fill-rule:evenodd; clip-rule:evenodd"
viewBox="0 0 2398.59 1476.06"
 xmlns:xlink="http://www.w3.org/1999/xlink"
 xmlns:xodm="http://www.corel.com/coreldraw/odm/2003">
 <defs>
  <style type="text/css">
   <![CDATA[
    .fil0 {fill:none}
    .fil1 {fill:white}
   ]]>
  </style>
 </defs>
 <g id="Layer_x0020_1">
  <metadata id="CorelCorpID_0Corel-Layer"/>
  <rect class="fil0" x="-0" y="0.01" width="2398.59" height="1476.05"/>
  <path class="fil1" d="M1469.15 608.31c-0.26,-0.76 -0.56,-1.5 -0.91,-2.22 -0.41,-1.24 -0.91,-2.46 -1.51,-3.62 -0.52,-0.78 -1.09,-1.54 -1.69,-2.26 -0.65,-0.98 -1.36,-1.91 -2.14,-2.78 -0.72,-0.65 -1.5,-1.26 -2.29,-1.82 -0.77,-0.71 -1.6,-1.38 -2.46,-2l-246.1 -147.66c-7.79,-4.69 -17.55,-4.69 -25.35,0l-246.11 147.66c-0.91,0.61 -1.77,1.27 -2.58,2 -0.79,0.56 -1.57,1.17 -2.31,1.82 -0.76,0.87 -1.47,1.79 -2.11,2.75 -0.63,0.73 -1.2,1.5 -1.73,2.29 -0.58,1.14 -1.07,2.31 -1.47,3.53 -0.36,0.75 -0.66,1.54 -0.93,2.33 -0.58,2.08 -0.87,4.23 -0.87,6.37l0 246.1c0.01,8.64 4.53,16.65 11.94,21.1l246.11 147.66 0.27 0.13 0.26 0.2c1.3,0.67 2.65,1.22 4.04,1.64 0.56,0.2 1.11,0.52 1.71,0.69 4.18,1.15 8.61,1.15 12.79,0 0.59,-0.17 1.13,-0.49 1.69,-0.69 1.4,-0.42 2.75,-0.97 4.04,-1.64l0.27 -0.2 0.27 -0.13 246.1 -147.66c7.41,-4.45 11.94,-12.46 11.94,-21.1l0 -246.1c0,-2.15 -0.29,-4.31 -0.86,-6.39zm-8.81 -96.85l34.81 -34.81 -34.81 -34.8 -34.8 34.8 34.8 34.81zm-522.05 522.13l34.8 -34.8 -34.8 -34.8 -34.8 34.8 34.8 34.8zm783.05 -817.88c-5.45,-5.52 -13.21,-8.11 -20.89,-6.97l-121.8 17.4 6.97 48.73 48.7 -6.95 -139.19 139.19 34.8 34.8 139.19 -139.19 -6.94 48.65 48.72 7.02 17.4 -121.8c1.11,-7.67 -1.47,-15.41 -6.97,-20.89zm-957.18 991.88l139.19 -139.19 -34.7 -34.8 -139.19 139.19 6.95 -48.7 -48.73 -6.97 -17.5 121.8c-1.92,13.45 7.42,25.92 20.87,27.86 1.16,0.16 2.33,0.24 3.5,0.24 1.16,0.01 2.33,-0.07 3.49,-0.24l121.79 -17.41 -6.96 -48.72 -48.71 6.95zm696.18 -174.02l34.8 -34.8 -34.8 -34.81 -34.8 34.81 34.8 34.8zm-522.07 -522.03l34.8 -34.8 -34.8 -34.81 -34.8 34.81 34.8 34.8zm790.09 727.37l-17.4 -121.8 -48.78 7.01 6.94 48.7 -139.19 -139.18 -34.8 34.79 139.19 139.19 -48.65 -6.99 -6.97 48.73 121.8 17.4c1.15,0.17 2.32,0.25 3.49,0.25 13.59,0 24.61,-11.03 24.61,-24.61 0,-1.17 -0.08,-2.33 -0.25,-3.49zm-824.9 -831.8l-139.19 -139.19 48.7 6.95 6.97 -48.73 -121.8 -17.5c-13.44,-1.99 -25.96,7.29 -27.96,20.73 -0.36,2.4 -0.36,4.83 0,7.23l17.41 121.8 48.72 -6.97 -6.94 -48.7 139.19 139.19 34.9 -34.8zm640.37 355.24l49.23 0 0 -49.22 -49.23 0 0 49.22zm-738.3 0l49.23 0 0 -49.22 -49.23 0 0 49.22zm1127.14 -39.37c-1.4,-1.86 -3.05,-3.51 -4.92,-4.92l-98.44 -73.83 -29.53 39.37 39.37 29.53 -196.88 0 0 49.23 196.88 0 -39.37 29.53 29.53 39.37 98.44 -73.83c10.87,-8.16 13.08,-23.58 4.92,-34.46zm-1176.36 -9.84l-196.88 0 39.37 -29.53 -29.53 -39.37 -98.44 73.83c-10.87,8.15 -13.08,23.58 -4.92,34.45 1.4,1.87 3.05,3.53 4.92,4.93l98.44 73.83 29.53 -39.37 -39.37 -29.54 196.88 0.01 0 -49.23zm418.37 418.37l49.23 0 0 -49.22 -49.23 0 0 49.22zm0 -738.29l49.23 0 0 -49.23 -49.23 0 0 49.23zm78.75 945.02l-29.53 39.38 0 -196.88 -49.23 0 0 196.88 -29.53 -39.38 -39.37 29.53 73.83 98.44c8.15,10.88 23.58,13.08 34.46,4.93 1.86,-1.4 3.51,-3.06 4.92,-4.93l73.83 -98.44 -39.37 -29.53zm-34.46 -1328.94c-8.94,-10.87 -25.01,-12.43 -35.89,-3.48 -1.27,1.05 -2.44,2.22 -3.48,3.48l-73.83 98.44 39.37 29.53 29.53 -39.37 0 196.88 49.23 0 0 -196.88 29.53 39.37 39.37 -29.53 -73.83 -98.44zm-19.69 486.44l75.21 45.14 -198.26 118.96 -75.2 -45.14 198.25 -118.96zm-24.61 469.25l-196.88 -118.14 0 -188.68 196.88 118.13 0 188.69zm24.61 -231.32l-75.21 -45.14 198.26 -118.96 75.21 45.14 -198.26 118.96zm221.5 113.21l-196.88 118.13 0 -188.71 196.88 -118.13 0 188.71z"/>
 </g>
</svg>
