<?xml version="1.0" encoding="UTF-8"?>
<!DOCTYPE svg PUBLIC "-//W3C//DTD SVG 1.1//EN" "http://www.w3.org/Graphics/SVG/1.1/DTD/svg11.dtd">
<!-- Creator: CorelDRAW 2019 (64-Bit) -->
<svg xmlns="http://www.w3.org/2000/svg" xml:space="preserve" width="0.90278in" height="0.555559in" version="1.1" style="shape-rendering:geometricPrecision; text-rendering:geometricPrecision; image-rendering:optimizeQuality; fill-rule:evenodd; clip-rule:evenodd"
viewBox="0 0 2398.59 1476.06"
 xmlns:xlink="http://www.w3.org/1999/xlink"
 xmlns:xodm="http://www.corel.com/coreldraw/odm/2003">
 <defs>
  <style type="text/css">
   <![CDATA[
    .fil0 {fill:none}
    .fil1 {fill:white}
   ]]>
  </style>
 </defs>
 <g id="Layer_x0020_1">
  <metadata id="CorelCorpID_0Corel-Layer"/>
  <rect class="fil0" x="-0" y="0.01" width="2398.59" height="1476.05"/>
  <path class="fil1" d="M1199.3 667.57c81.66,0 273.68,-98.28 273.68,-333.79 0,-32.85 -0.81,-64.58 -3.51,-94.56 -4.45,-59.01 -16.53,-111.31 -46.62,-151.38 -38.6,-54.54 -106.12,-87.84 -223.55,-87.84 -117.41,0 -184.93,33.29 -223.52,87.81 -30.11,40.08 -42.21,92.4 -46.64,151.42 -2.71,29.98 -3.5,61.7 -3.5,94.55 -0.01,235.5 192.01,333.79 273.67,333.79zm-54.05 421.92c1.51,1.41 2.29,3.19 2.34,5.26 0.04,2.12 -0.69,3.96 -2.19,5.46l-115.74 115.73c-2.01,2.01 -4.76,2.69 -7.47,1.86 -100.03,-30.54 -174.16,19.56 -174.16,125.86 0,18.89 3.25,37.52 9.73,55.26 3.4,9.29 15.31,11.92 22.31,4.93l60.94 -60.94c1.45,-1.45 3.22,-2.19 5.28,-2.19l22.17 0c2.06,0 3.83,0.73 5.28,2.19l8.84 8.84c1.45,1.45 2.19,3.22 2.19,5.28l0 22.17c0,2.06 -0.73,3.83 -2.19,5.28l-60.27 60.27c-7.05,7.05 -4.3,19.09 5.12,22.37 17.06,5.94 34.93,8.93 52.99,8.93 105.23,0 155.34,-72.43 126.42,-172.04 -0.78,-2.69 -0.09,-5.39 1.89,-7.37l116.52 -116.52c2.92,-2.92 7.67,-2.92 10.58,0l48.1 48.1c2.92,2.91 2.92,7.66 0,10.58l-44.62 44.62c-5.29,5.29 -5.29,13.87 0,19.16l143.57 143.58c38.19,38.18 100.06,38.15 138.21,-0.06 38.03,-38.1 38,-100.07 -0.08,-138.12l-143.64 -143.46c-5.29,-5.29 -13.86,-5.29 -19.15,0l-44.55 44.55c-2.91,2.91 -7.66,2.91 -10.56,0l-48.11 -48.11c-2.91,-2.91 -2.91,-7.66 0,-10.56l116.18 -116.17c1.98,-1.99 4.68,-2.68 7.36,-1.89 99.6,28.92 172.04,-21.18 172.04,-126.42 0,-18.06 -2.98,-35.93 -8.93,-52.99 -3.28,-9.41 -15.31,-12.17 -22.37,-5.12l-60.27 60.27c-1.45,1.45 -3.22,2.19 -5.28,2.19l-22.17 0c-2.06,0 -3.83,-0.73 -5.28,-2.19l-9.72 -9.72c-1.5,-1.5 -2.24,-3.35 -2.19,-5.48 0.19,-7.05 0.61,-14.1 0.77,-21.16 0.05,-1.99 0.77,-3.69 2.19,-5.1l61.06 -61.05c7,-7 4.36,-18.91 -4.94,-22.31 -17.74,-6.47 -36.37,-9.73 -55.25,-9.73 -106.31,0 -156.41,74.14 -125.87,174.16 0.84,2.71 0.15,5.46 -1.86,7.47l-115.39 115.39c-1.5,1.5 -3.33,2.24 -5.45,2.19 -2.11,-0.04 -3.91,-0.86 -5.24,-2.31 -8.4,-8.68 -17.17,-17.21 -25.71,-25.76 -18.03,-18.03 -36.06,-36.08 -54.09,-54.11 -26.65,-26.65 -53.32,-53.29 -79.97,-79.96 -1.45,-1.45 -2.19,-3.22 -2.19,-5.28l0 -51.55c0,-3.6 -1.43,-7.04 -3.97,-9.58l-65.39 -65.4c-5.29,-5.29 -13.87,-5.29 -19.16,0l-60.95 60.96c-5.29,5.29 -5.29,13.86 0,19.15l64 64c2.53,2.54 5.98,3.96 9.57,3.96l52.95 0c2.06,0 3.83,0.73 5.29,2.2 26.77,26.77 53.54,53.54 80.3,80.31 18.12,18.11 36.23,36.22 54.35,54.33 8.58,8.57 17.13,17.36 25.85,25.79zm-177.41 -189.73l-32.63 0c-2.06,0 -3.83,-0.73 -5.29,-2.19l-42.97 -42.97c-2.91,-2.92 -2.91,-7.66 0,-10.58l31.23 -31.22c2.91,-2.92 7.66,-2.92 10.56,0l44.38 44.37c1.45,1.45 2.19,3.22 2.19,5.28l0 29.83c0,4.11 -3.36,7.47 -7.48,7.47zm112.68 386.79c-3.68,3.67 -4.93,9.13 -3.21,14.04 6.79,19.47 11.26,40.6 10.45,61.3 -0.68,17.52 -5.22,34.74 -15.46,49.16 -21.72,30.56 -62.61,39.37 -98.04,37.77 -3.03,-0.14 -5.53,-1.94 -6.63,-4.76 -1.1,-2.82 -0.46,-5.85 1.68,-7.99l38.59 -38.59c2.54,-2.54 3.96,-5.98 3.96,-9.58l0 -39.57c0,-3.6 -1.42,-7.04 -3.96,-9.58l-21.15 -21.15c-2.54,-2.54 -5.98,-3.96 -9.57,-3.96l-39.58 0c-3.6,0 -7.04,1.42 -9.58,3.96l-39.85 39.85c-2.11,2.11 -5.1,2.76 -7.91,1.71 -2.81,-1.06 -4.63,-3.5 -4.83,-6.5 -0.2,-2.99 -0.29,-5.99 -0.29,-9 0,-34.31 8.74,-71.2 38.26,-92.15 32.68,-23.2 76.66,-16.97 112.01,-4.06 4.95,1.81 10.5,0.58 14.23,-3.15l279.18 -279.18c3.72,-3.72 4.96,-9.28 3.15,-14.23 -12.92,-35.38 -19.14,-79.38 4.11,-112.07 20.96,-29.46 57.82,-38.2 92.11,-38.2 2.99,0 5.99,0.09 8.99,0.29 2.99,0.2 5.44,2.02 6.5,4.83 1.06,2.8 0.42,5.79 -1.71,7.92l-39.85 39.84c-2.54,2.54 -3.96,5.98 -3.96,9.58 0,12.89 -0.99,25.69 -0.99,38.59 0,3.59 1.43,7.04 3.97,9.57l22.13 22.14c2.54,2.54 5.98,3.96 9.58,3.96l39.58 0c3.59,0 7.03,-1.42 9.57,-3.96l38.6 -38.6c2.13,-2.13 5.16,-2.77 7.98,-1.68 2.82,1.1 4.62,3.61 4.77,6.63 0.09,2.06 0.14,4.11 0.14,6.17 0,33.94 -8.51,70.52 -37.48,91.53 -14.38,10.44 -31.43,15.18 -49.05,15.93 -20.88,0.89 -42.23,-3.73 -61.85,-10.58 -4.91,-1.71 -10.37,-0.46 -14.04,3.21l-280.53 280.54zm421.38 140.41c-27.56,27.61 -72.29,27.64 -99.87,0.04l-128.71 -128.71c-2.91,-2.91 -2.91,-7.66 0,-10.56l89.18 -89.19c2.91,-2.91 7.66,-2.91 10.56,0l128.78 128.62c27.53,27.5 27.55,72.27 0.06,99.81zm-124.4 -143.47c-5.29,-5.29 -13.86,-5.29 -19.15,0 -5.29,5.29 -5.29,13.87 0,19.16l82.68 82.68c5.29,5.28 13.86,5.28 19.15,0 5.29,-5.29 5.29,-13.87 0,-19.16l-82.68 -82.68zm329.88 -273.6c-13.97,-86.88 -42.73,-198.8 -100.43,-238.57 -39.4,-27.17 -176.87,-100.61 -235.57,-131.97l-0.99 -0.53c-6.7,-3.58 -14.91,-2.86 -20.88,1.83 -30.75,24.14 -64.43,40.42 -100.11,48.36 -6.3,1.4 -11.47,5.89 -13.77,11.92l-36.33 95.76 -36.34 -95.76c-2.28,-6.04 -7.46,-10.52 -13.77,-11.92 -35.67,-7.94 -69.35,-24.22 -100.1,-48.36 -5.99,-4.7 -14.18,-5.41 -20.89,-1.83 -58,31 -197.14,105.94 -236.38,132.38 -66.42,44.75 -95.46,206.67 -100.61,238.68 -0.51,3.17 -0.22,65.97 0.85,69.01 15.96,45.03 107.34,80.22 229.29,102.3 28.14,-7.95 60.43,-8.32 95.16,-0.07l86.15 -86.15c-2.41,-2.43 -4.82,-4.86 -7.24,-7.28 -18.13,-18.11 -36.24,-36.22 -54.35,-54.33 -24.19,-24.19 -48.38,-48.38 -72.56,-72.57l-42 0c-12.59,0 -24.67,-5 -33.57,-13.9l-64 -64c-18.54,-18.54 -18.54,-48.61 0,-67.14l60.95 -60.96c18.54,-18.53 48.62,-18.53 67.14,0l65.4 65.4c8.9,8.9 13.91,20.98 13.91,33.58l0 40.6c24.07,24.07 48.15,48.13 72.22,72.21 18.03,18.03 36.07,36.07 54.09,54.11 2.38,2.38 4.78,4.76 7.17,7.13l85.81 -85.81c-27.15,-114.4 39,-202.41 162.55,-202.41 22.83,0 45.44,3.95 66.89,11.79 25.78,9.41 36.95,37.58 28.28,61.08 23.5,-8.06 51.31,3.46 60.31,29.29 7.2,20.64 10.83,42.31 10.83,64.16 0,122.4 -86.18,188.45 -200.02,162.97l-86.8 86.8 10.69 10.69 25.84 -25.85c18.53,-18.53 48.59,-18.54 67.12,-0.02l53.05 52.99c130.4,-18.28 231.09,-55.25 252.15,-114.6 1.07,-3.03 1.36,-65.84 0.85,-69.01zm-418.75 -887.6c-7.97,20.15 -11.97,30.22 -19.94,50.36 -51.49,-14.54 -87.31,-14.54 -138.8,0 -7.97,-20.14 -11.97,-30.21 -19.94,-50.36 64.39,-19.5 114.29,-19.49 178.67,0zm-322.29 160.43c3.15,6.9 16.55,33.42 37.28,35.9 23.84,2.87 63.4,-84.4 195.68,-84.62 132.28,0.22 171.84,87.49 195.68,84.62 20.73,-2.49 34.13,-29 37.28,-35.9 0.65,16.9 0.88,34.01 0.88,51.07 0,115.11 -50.83,186.44 -93.47,226 -53.72,49.85 -113.38,67.94 -140.37,67.94 -26.99,0 -86.63,-18.09 -140.37,-67.94 -42.65,-39.56 -93.47,-110.89 -93.47,-226 0,-17.06 0.23,-34.16 0.88,-51.07z"/>
 </g>
</svg>
